<?xml version="1.0" encoding="UTF-8" standalone="no"?>
<!-- Created with Inkscape (http://www.inkscape.org/) -->

<svg
   xmlns:dc="http://purl.org/dc/elements/1.1/"
   xmlns:cc="http://creativecommons.org/ns#"
   xmlns:rdf="http://www.w3.org/1999/02/22-rdf-syntax-ns#"
   xmlns:svg="http://www.w3.org/2000/svg"
   xmlns="http://www.w3.org/2000/svg"
   xmlns:sodipodi="http://sodipodi.sourceforge.net/DTD/sodipodi-0.dtd"
   xmlns:inkscape="http://www.inkscape.org/namespaces/inkscape"
   version="1.1"
   id="svg3713"
   width="1037.3333"
   height="506.66666"
   viewBox="0 0 1037.3333 506.66666"
   sodipodi:docname="signature.svg"
   inkscape:version="0.92.3 (2405546, 2018-03-11)">
  <metadata
     id="metadata3719">
    <rdf:RDF>
      <cc:Work
         rdf:about="">
        <dc:format>image/svg+xml</dc:format>
        <dc:type
           rdf:resource="http://purl.org/dc/dcmitype/StillImage" />
      </cc:Work>
    </rdf:RDF>
  </metadata>
  <defs
     id="defs3717">
    <filter
       style="color-interpolation-filters:sRGB;"
       inkscape:label="Invert"
       id="filter3756">
      <feColorMatrix
         type="hueRotate"
         values="180"
         result="color1"
         id="feColorMatrix3752" />
      <feColorMatrix
         values="-1 0 0 0 1 0 -1 0 0 1 0 0 -1 0 1 -0.21 -0.72 -0.07 1.76 0 "
         result="color2"
         id="feColorMatrix3754" />
    </filter>
  </defs>
  <sodipodi:namedview
     pagecolor="#ffffff"
     bordercolor="#666666"
     borderopacity="1"
     objecttolerance="10"
     gridtolerance="10"
     guidetolerance="10"
     inkscape:pageopacity="0"
     inkscape:pageshadow="2"
     inkscape:window-width="1920"
     inkscape:window-height="997"
     id="namedview3715"
     showgrid="false"
     inkscape:zoom="1.5868421"
     inkscape:cx="518.66663"
     inkscape:cy="228.12603"
     inkscape:window-x="-9"
     inkscape:window-y="-9"
     inkscape:window-maximized="1"
     inkscape:current-layer="svg3713" />
  <path
     style="fill:#000000;stroke-width:1.33333325;filter:url(#filter3756)"
     d="m 350.55721,432.4311 c -0.9598,-2.5012 0.22987,-3.82648 6.30143,-7.01974 11.61965,-6.1112 20.75529,-11.30504 22.58413,-12.83965 1.1,-0.92303 7.4,-4.60527 14,-8.18275 6.6,-3.57748 13.8,-7.5544 16,-8.83761 6.85139,-3.99624 43.25847,-22.20048 59.36862,-29.68544 22.99538,-10.6839 77.8567,-32.74004 123.29804,-49.57005 11,-4.07405 23.6,-8.78297 28,-10.46427 4.4,-1.6813 14.45028,-5.22228 22.33395,-7.86885 7.88368,-2.64657 22.58368,-8.16736 32.66666,-12.26843 37.39721,-15.21057 63.80372,-25.5727 73.66605,-28.90717 5.43048,-1.83605 43.57153,-16.11275 65.33333,-24.45513 4.76667,-1.8273 10.76667,-4.12294 13.33334,-5.10142 5.42505,-2.06817 31.69865,-12.79652 43.33333,-17.69437 4.4,-1.85227 12.5,-5.49991 18,-8.10587 l 10,-4.73812 -7.33334,-1.07941 c -4.03333,-0.59368 -10.63333,-0.79653 -14.66666,-0.45077 -4.03333,0.34574 -12.13333,0.98229 -18,1.41453 -13.568,0.99968 -61.78545,7.0022 -63.24409,7.87317 -0.41575,0.24826 -3.75591,0.84266 -7.42258,1.3209 -19.91105,2.59697 -82.08102,16.78712 -101.99999,23.28125 -4.76667,1.55407 -11.66667,3.69233 -15.33333,4.75172 -3.66667,1.05937 -12.96667,3.83759 -20.66667,6.1738 -21.25349,6.4484 -22.20395,6.59791 -24.66381,3.87979 -1.90236,-2.10207 -1.91395,-2.56824 -0.1088,-4.37342 2.20214,-2.20214 33.05146,-12.23486 70.10591,-22.79962 28.30959,-8.07148 36.7487,-10.59454 37.33334,-11.16163 0.36666,-0.35567 -1.33423,-0.21772 -3.77978,0.30655 -4.36133,0.93496 -22.29833,4.37264 -27.55356,5.28072 -11.27438,1.94817 -38.34813,7.66474 -65.99999,13.9358 -31.93754,7.24297 -66.44735,15.55576 -76,18.30704 -4.03333,1.16164 -13.63333,3.81044 -21.33333,5.8862 -7.7,2.07577 -18.5,4.99925 -24,6.49662 -12.70624,3.45927 -16.85314,3.5072 -18.61498,0.21518 -1.96996,-3.6809 -0.83658,-5.55007 6.29782,-10.38646 7.35585,-4.9865 52.56937,-27.56896 88.31715,-44.11108 4.76667,-2.20576 14.36667,-6.7647 21.33334,-10.13101 6.96666,-3.36631 13.58316,-6.12375 14.70332,-6.12763 1.12017,-0.004 3.26841,-0.86984 4.77389,-1.9243 1.50548,-1.05448 11.38897,-5.62083 21.96335,-10.14744 10.57436,-4.52662 22.28399,-9.66386 26.02142,-11.41611 3.73743,-1.75224 7.63743,-3.18813 8.66667,-3.19088 1.02924,-0.003 3.67134,-1.09896 5.87134,-2.43604 2.2,-1.33708 6.86338,-3.52147 10.36306,-4.85417 3.49969,-1.33272 6.13817,-2.64803 5.86329,-2.9229 -1.00351,-1.00352 -115.64908,38.37331 -130.89301,44.95727 -1.46667,0.63345 -7.76667,3.02856 -14,5.32245 -6.23333,2.2939 -17.76482,6.81844 -25.62554,10.05455 -7.86068,3.23611 -14.61723,5.88383 -15.0145,5.88383 -0.39728,0 -3.26578,1.10962 -6.37446,2.46584 -3.10867,1.35621 -10.45214,4.40552 -16.3188,6.77622 -5.86667,2.37071 -11.64539,4.82164 -12.84159,5.44652 -1.1962,0.62488 -8.9962,3.90318 -17.33333,7.2851 -8.33713,3.38192 -16.35841,6.69449 -17.82508,7.36129 -1.46667,0.66679 -6.56667,2.79723 -11.33333,4.73431 -4.76667,1.93708 -12.27192,5.17756 -16.67834,7.20106 -4.40641,2.02351 -9.50641,4.13696 -11.33333,4.69658 -1.82692,0.55962 -5.72167,2.07224 -8.655,3.36138 -2.93333,1.28915 -11.93333,5.18442 -20,8.65615 -37.829,16.28084 -90.06586,41.19183 -116.66666,55.6366 -73.38984,39.85217 -70.49687,38.36041 -72.73023,37.50339 -1.06504,-0.4087 -1.93644,-1.84499 -1.93644,-3.19178 0,-1.79864 3.98212,-4.38536 15,-9.74381 8.25,-4.01231 26.30587,-13.3462 40.12415,-20.74199 13.81828,-7.39577 25.32333,-13.44686 25.56678,-13.44686 0.24344,0 6.7838,-3.6 14.53411,-8 7.75032,-4.4 14.44057,-8 14.86725,-8 0.42668,0 4.78047,-2.33643 9.67508,-5.19207 19.18263,-11.1916 87.91261,-45.19961 116.47357,-57.63181 6.36587,-2.77098 12.66587,-5.64666 14,-6.39039 2.51995,-1.40479 7.54886,-3.65755 34.42572,-15.42141 30.08176,-13.16663 54.27603,-24.64936 52,-24.67948 -3.35132,-0.0444 -35.41789,5.63212 -45.78836,8.10553 -21.77145,5.19261 -43.5674,10.35223 -66.8783,15.83167 -27.65374,6.50028 -27.45219,6.43845 -74.32441,22.79822 -10.29664,3.59383 -14.73654,3.91604 -15.20892,1.10375 -0.11,-0.65487 -0.26,-1.83587 -0.33334,-2.62444 -0.0733,-0.78856 8.26667,-4.30631 18.53334,-7.81721 10.26666,-3.5109 25.86666,-9.5297 34.66666,-13.37512 8.8,-3.84543 18.86413,-8.21355 22.36473,-9.70695 3.50062,-1.49339 6.18415,-2.89585 5.96343,-3.11659 -0.50555,-0.50554 -16.24635,3.70327 -27.66149,7.3962 -4.76667,1.54207 -14.13208,4.5712 -20.81203,6.7314 -48.41437,15.65656 -67.5272,23.45614 -112.5213,45.91775 -42.19807,21.0658 -46.63641,22.89455 -50.52029,20.81595 -1.54718,-0.82802 -2.81304,-2.34496 -2.81304,-3.37099 0,-1.02603 11.85,-9.20971 26.33333,-18.18595 14.48333,-8.97624 32.33333,-20.03888 39.66666,-24.58364 7.33334,-4.54476 22.33776,-13.93942 33.34318,-20.87702 11.00541,-6.93762 22.70541,-14.12956 26,-15.98211 3.29458,-1.85255 8.39016,-4.74025 11.32349,-6.41713 2.93333,-1.67688 12.38333,-6.91684 21,-11.64438 8.61666,-4.72753 15.66666,-8.86148 15.66666,-9.18656 0,-0.32508 -1.05,-0.0415 -2.33333,0.63028 -3.64433,1.90752 -43.43182,20.50812 -58.33333,27.27072 -5.13333,2.32963 -21.05481,10.01859 -35.38108,17.08659 -22.93892,11.31715 -36.61673,18.46119 -70.61892,36.88484 -4.76666,2.58275 -13.16666,7.07284 -18.66666,9.97797 -5.5,2.90512 -13,6.94279 -16.66667,8.97258 -12.64981,7.00266 -20.04976,11.03813 -34.66666,18.90498 -8.06667,4.34151 -15.56667,8.42978 -16.66667,9.08506 -1.1,0.65526 -8,4.63962 -15.33333,8.85413 -74.457094,42.79088 -77.236782,44.26644 -80.066914,42.50229 -1.176453,-0.73333 -2.242673,-1.93333 -2.369378,-2.66666 -0.275055,-1.59195 21.337146,-16.14338 44.453214,-29.9302 9.15736,-5.46162 22.75629,-13.86162 30.219845,-18.66667 46.137953,-29.70372 60.268363,-38.77536 69.458403,-44.59185 5.66765,-3.58714 12.40482,-7.85994 14.97149,-9.49511 5.08216,-3.23775 35.08227,-21.2464 61,-36.61747 8.98333,-5.32776 16.33333,-9.88389 16.33333,-10.12473 0,-1.76289 -31.33954,13.98977 -50.66666,25.46732 -18.67574,11.09073 -44.3266,26.24688 -50.66667,29.93709 -6.63557,3.8622 -7.94226,4.6948 -27.94321,17.80488 l -17.97673,11.78327 -2.46379,-3.04265 c -2.41729,-2.98523 -2.40547,-3.08752 0.62664,-5.42028 1.69973,-1.30771 3.57485,-2.39098 4.16692,-2.40728 0.59207,-0.0163 4.79207,-2.60803 9.33333,-5.75938 4.54127,-3.15134 12.75684,-8.34316 18.25684,-11.53736 13.27487,-7.70958 57.44697,-33.2297 73.33333,-42.36782 24.40514,-14.03828 61.17523,-30.55606 64.86697,-29.13939 3.32903,1.27745 1.83759,5.85372 -3.2003,9.81967 -7.08886,5.5805 -15.24039,10.64846 -53,32.95106 -44.42311,26.23839 -108.43005,66.38067 -111.96446,70.21911 -0.75288,0.81763 2.83113,-0.76313 7.96446,-3.51283 5.13334,-2.74968 14.43334,-7.71781 20.66667,-11.04028 6.23333,-3.32246 18.90041,-10.11604 28.14906,-15.09682 9.24866,-4.9808 23.94866,-12.79 32.66667,-17.3538 8.71801,-4.56379 19.75093,-10.49871 24.5176,-13.18871 9.84185,-5.55412 16.27183,-8.88169 50.05373,-25.90324 13.22956,-6.66593 27.92956,-13.86879 32.66667,-16.00636 4.73712,-2.13756 17.82065,-8.28756 29.07454,-13.66667 11.25388,-5.37909 20.63578,-9.78017 20.84863,-9.78017 0.21287,0 6.00513,-2.62768 12.87172,-5.83929 12.86845,-6.01876 43.17114,-19.10588 80.4847,-34.75968 11.73334,-4.92238 27.27461,-11.84745 34.53617,-15.38905 7.26156,-3.5416 14.01156,-6.12894 15,-5.74964 0.98844,0.3793 1.79716,2.00741 1.79716,3.61803 0,2.41631 -1.92357,3.71328 -11,7.41677 -23.04421,9.4028 -140.20606,67.05046 -143.66666,70.68893 -0.36666,0.38552 -3.96666,2.45325 -8,4.59496 -15.42841,8.19252 -18.60361,10.12461 -93.10139,56.65172 -12.45796,7.78053 -13.587,8.46873 -17.34614,10.57321 -1.7128,0.95888 -2.83769,2.01993 -2.49974,2.35788 0.33794,0.33793 12.23933,-5.03785 26.44753,-11.9462 48.05424,-23.36508 57.06956,-27.03965 105.16641,-42.86497 40.59269,-13.35624 70.60709,-21.50582 74.16966,-20.13872 1.00668,0.38629 1.83034,2.1454 1.83034,3.90912 0,2.62181 -1.52007,3.92996 -8.33334,7.17157 -4.58333,2.18065 -11.5222,5.01757 -15.4197,6.30427 -9.09875,3.0038 -8.32715,3.89984 1.14837,1.33358 8.08792,-2.19045 36.15667,-8.76733 64.60466,-15.1377 10.26667,-2.29903 20.76667,-4.73491 23.33334,-5.41308 2.56666,-0.67816 13.80752,-2.54754 24.97968,-4.15416 21.67176,-3.11651 24.98732,-2.69202 24.08466,3.08364 -0.38018,2.4326 -8.06633,6.1339 -49.06434,23.62721 -4.76667,2.03387 -14.36667,6.39436 -21.33334,9.68999 -6.96666,3.29561 -14.76666,6.92386 -17.33333,8.06277 -2.56666,1.13891 -9.46666,4.29761 -15.33333,7.01936 -26.43853,12.26573 -36.56184,17.17208 -36.19277,17.54115 0.56272,0.56272 29.94338,-11.42151 49.5261,-20.20144 2.2,-0.98638 10.9,-4.56707 19.33333,-7.95711 8.43334,-3.39004 16.3247,-6.71628 17.53635,-7.39165 1.21165,-0.67538 10.51165,-4.52371 20.66667,-8.55186 10.15501,-4.02814 25.96365,-10.39838 35.13032,-14.1561 9.16666,-3.75772 20.26666,-8.06556 24.66666,-9.57299 4.4,-1.50744 9.8,-3.48724 12,-4.39956 27.61943,-11.45361 129.24808,-46.12073 166.1155,-56.6646 10.5698,-3.0229 22.67022,-6.66472 26.8898,-8.09294 9.34735,-3.16382 8.59133,-3.17512 10.37364,0.15514 1.85533,3.46672 -0.38027,6.58144 -4.72385,6.58144 -4.32568,0 -30.63432,8.90227 -49.98843,16.91499 -9.14321,3.78534 -10.05666,4.17132 -14.86817,6.2824 -2.67749,1.17477 -5.15259,2.13594 -5.50021,2.13594 -0.34762,0 -5.35694,2.20616 -11.13183,4.90258 -5.77488,2.69641 -10.81923,4.94641 -11.20965,5 -1.23408,0.16937 -12.4749,4.97369 -16.16252,6.90785 -1.94648,1.02093 -4.42301,1.85624 -5.50341,1.85624 -1.08039,0 -2.71128,0.9 -3.6242,2 -0.91292,1.1 -2.73776,2 -4.05522,2 -1.31744,0 -4.09397,0.87531 -6.17006,1.94513 -2.0761,1.06982 -7.22472,3.46982 -11.44139,5.33334 -19.54447,8.63746 -66.68927,30.66734 -70.33333,32.86544 -1.1,0.66352 -2.9,1.56718 -4,2.00814 -1.1,0.44096 -6.24476,2.83714 -11.43279,5.32484 -5.18804,2.48771 -9.87993,4.52311 -10.42644,4.52311 -0.5465,0 -3.65174,1.82883 -6.90053,4.06405 -3.2488,2.23523 -5.90691,3.70122 -5.90691,3.25774 0,-0.44348 -1.3335,0.12773 -2.96334,1.26928 -1.62983,1.14157 -3.95636,2.0756 -5.17007,2.0756 -1.21371,0 -2.95051,0.89618 -3.85956,1.99153 -0.90905,1.09535 -4.91812,3.85975 -8.90904,6.14312 -12.22495,6.9944 -11.65,6.89227 35.56868,-6.31841 20.00821,-5.59783 84.3407,-21.11564 95.61862,-23.06443 3.50976,-0.60648 19.58138,-3.88272 35.71471,-7.28056 51.72528,-10.89383 89.82702,-17.14209 92.33333,-15.14167 2.10352,1.67895 2.1852,6.33708 0.11107,6.33708 -0.85555,0 -1.2058,0.34976 -0.77832,0.77724 0.42748,0.42748 5.47747,-0.14945 11.22222,-1.28205 9.35,-1.8434 19.75139,-3.36761 61.11165,-8.95524 6.6,-0.89163 22.96803,-1.67788 36.3734,-1.74721 20.3068,-0.10507 24.58576,0.20762 25.64625,1.87393 2.70791,4.25487 1.4116,7.45312 -4.35298,10.7398 -6.96499,3.97108 -22.33333,10.60415 -22.33333,9.6392 0,-0.38804 -0.75,-0.1 -1.66667,0.63995 -0.91667,0.74 -6.46667,3.26534 -12.33333,5.61186 -5.86667,2.34651 -12.16667,4.8948 -14,5.66286 -6.60178,2.76572 -8.71964,3.55342 -12,4.46313 -1.83334,0.50843 -5.84316,2.09333 -8.91074,3.52201 -3.06757,1.42868 -6.36757,2.73316 -7.33333,2.89882 -0.96576,0.16566 -3.76169,1.36272 -6.21317,2.6601 -2.45148,1.2974 -4.77755,2.03859 -5.16904,1.6471 -0.39146,-0.3915 -2.35963,0.14033 -4.37368,1.18184 -2.01406,1.0415 -4.03798,1.51757 -4.49763,1.05793 -0.45964,-0.45964 -0.83571,-0.25624 -0.83571,0.45199 0,1.15769 -7.99494,4.79416 -11.33333,5.15493 -5.55232,0.60004 -20.19678,6.91613 -18.94292,8.17001 0.35686,0.35686 3.565,-0.24326 7.12921,-1.33361 3.5642,-1.09033 10.08038,-2.98967 14.48038,-4.22073 4.4,-1.23106 11.6,-3.37003 16,-4.75327 4.4,-1.38323 14.9,-4.33959 23.33333,-6.56968 8.43333,-2.23009 19.53333,-5.21999 24.66667,-6.6442 52.91535,-14.68117 130.47291,-30.13045 137.57587,-27.4048 1.11485,0.42781 1.76237,2.02868 1.51764,3.75213 -0.3994,2.81262 -1.14517,3.0285 -11.59501,3.35639 -10.96489,0.34404 -42.40101,5.19011 -58.16517,8.96649 -4.4,1.05406 -10.1,2.26144 -12.66667,2.68308 -5.76252,0.94666 -20.83519,4.47215 -25.33333,5.92546 -1.83334,0.59234 -6.63334,1.80377 -10.66667,2.69206 -4.03333,0.88831 -9.73333,2.47108 -12.66666,3.51728 -2.93334,1.0462 -7.13334,2.13591 -9.33334,2.42156 -2.2,0.28567 -9.7,2.11188 -16.66666,4.05827 -6.96667,1.94639 -14.76667,4.09469 -17.33334,4.774 -7.5618,2.00137 -27.93748,7.79744 -38,10.80948 -5.13333,1.53659 -12.03333,3.59007 -15.33333,4.56332 -20.21862,5.96293 -26.21749,7.82399 -28,8.68655 -1.1,0.5323 -9.97928,3.22894 -19.73173,5.99253 -9.75245,2.76359 -18.03787,5.52004 -18.41203,6.12543 -0.37416,0.6054 -1.57218,1.10073 -2.66229,1.10073 -2.16372,0 -29.81492,9.85004 -35.19394,12.53695 -1.83334,0.91578 -5.88334,2.46564 -9,3.44413 -3.11667,0.97849 -5.66667,2.38304 -5.66667,3.12123 0,0.73817 -0.35424,0.98789 -0.78721,0.55492 -0.94292,-0.94292 -7.65298,1.36772 -18.54612,6.38648 -4.4,2.02718 -8.78131,3.84816 -9.73623,4.04661 -0.95492,0.19844 -3.18381,1.30931 -4.95309,2.46857 -1.76927,1.15928 -3.98798,2.12814 -4.93044,2.15302 -0.94247,0.0249 -4.11358,1.20452 -7.04691,2.62142 -2.93333,1.41691 -5.81996,2.59655 -6.41472,2.62143 -0.59477,0.0249 -6.29477,2.51069 -12.66667,5.52401 -6.3719,3.01334 -12.18528,5.59608 -12.91861,5.73943 -0.73333,0.14336 -3.27704,1.29007 -5.65269,2.54824 -2.37565,1.25817 -4.61476,2.30151 -4.9758,2.31849 -1.86896,0.088 -9.97108,4.06115 -10.7058,5.24995 -0.46748,0.75641 -1.40832,1.03021 -2.09073,0.60845 -0.68243,-0.42176 -4.69096,1.00182 -8.90787,3.1635 -4.21691,2.16168 -11.71711,5.58698 -16.66711,7.61177 -4.95,2.0248 -9,4.19144 -9,4.81476 0,0.62332 -0.48036,0.98331 -1.06746,0.79997 -1.7071,-0.53306 -10.93254,3.38296 -10.93254,4.64064 0,0.62862 -0.75,0.98522 -1.66666,0.79246 -0.91667,-0.19276 -5.07951,1.28093 -9.25076,3.27488 -4.17127,1.99394 -8.43754,3.62536 -9.48062,3.62536 -1.04308,0 -4.10688,1.5 -6.80844,3.33333 -2.70157,1.83333 -5.54272,3.33333 -6.31368,3.33333 -0.77094,0 -2.9943,0.83352 -4.94078,1.85228 -1.94648,1.01876 -8.78905,4.09632 -15.20572,6.83903 -6.41667,2.74272 -11.66667,5.44241 -11.66667,5.99933 0,0.55692 -2.03913,1.39513 -4.5314,1.86268 -2.49228,0.46756 -6.08648,2.07332 -7.98713,3.56837 -1.90064,1.49504 -4.01027,2.37554 -4.68804,1.95664 -0.67779,-0.41888 -1.43357,-0.30788 -1.67955,0.2467 -0.6569,1.48109 -9.0082,5.67497 -11.30062,5.67497 -1.15006,0 -1.57448,0.64099 -1.01927,1.53935 0.56588,0.9156 0.36811,1.17886 -0.48807,0.64972 -1.62185,-1.00236 -7.15946,1.11674 -12.63925,4.83672 -2.01667,1.36902 -3.66667,2.15382 -3.66667,1.744 0,-0.40983 -2.91636,1.04932 -6.4808,3.24253 -3.56444,2.19323 -6.97544,3.98768 -7.58,3.98768 -0.60457,0 -5.15718,2.1 -10.11692,4.66667 -9.97407,5.16158 -12.84703,5.68888 -14.04117,2.57704 z m 56.77445,-29.42431 c 1.82976,-1.60088 -2.51005,-0.11413 -4.63405,1.58749 -2.44041,1.95516 -2.39787,1.98292 0.74516,0.48606 1.83333,-0.87312 3.58333,-1.80622 3.88889,-2.07355 z m 23.44444,-10.4764 c 19.15863,-8.83489 50.86017,-22.65422 53.33333,-23.24906 0.73334,-0.17639 1.93334,-0.80619 2.66667,-1.39956 0.73333,-0.59339 14.53333,-6.86479 30.66667,-13.93646 40.34212,-17.68301 53.95965,-23.90937 53.43629,-24.43274 -0.37227,-0.37226 -17.21515,6.11565 -26.76963,10.31172 -1.46666,0.64412 -6.86666,2.77586 -12,4.73721 -5.13333,1.96136 -11.13333,4.37292 -13.33333,5.35904 -2.2,0.98611 -9.1,3.87881 -15.33333,6.42821 -17.72428,7.24916 -39.89196,17.39238 -66,30.19945 -32.80309,16.09128 -37.25892,20.08963 -6.66667,5.98219 z m 145.32389,-64.66106 c 0.46712,-0.75582 -0.0681,-0.97934 -1.25464,-0.52402 -2.30989,0.88639 -2.73252,1.84208 -0.81461,1.84208 0.69005,0 1.62122,-0.59313 2.06925,-1.31806 z M 104.77611,303.09357 c 0,-0.36667 -1.2,-0.0244 -2.66666,0.76049 -1.46667,0.78493 -2.666667,1.72716 -2.666667,2.09383 0,0.36666 1.199997,0.0244 2.666667,-0.7605 1.46666,-0.78493 2.66666,-1.72716 2.66666,-2.09382 z m 288.70194,-40.31534 c -0.41052,-0.41052 -1.48639,-8.5e-4 -2.39084,0.91038 -1.30701,1.31682 -1.15387,1.46997 0.7464,0.7464 1.31496,-0.50071 2.05496,-1.24626 1.64444,-1.65678 z m 7.29805,-2.2575 c 1.83334,-1.04803 2.73334,-1.90551 2,-1.90551 -0.73333,0 -2.83333,0.85748 -4.66666,1.90551 -1.83334,1.04802 -2.73334,1.9055 -2,1.9055 0.73333,0 2.83333,-0.85748 4.66666,-1.9055 z m 355.99999,0 c 4.15598,-2.37578 2.16927,-2.37578 -4,0 -3.05569,1.17674 -3.7461,1.81582 -2,1.85132 1.46667,0.0299 4.16667,-0.8033 6,-1.85132 z m 11,-2.97344 c 1.28334,-0.369 2.33334,-1.20094 2.33334,-1.84874 0,-1.4389 -1.85858,-1.54146 -3.22223,-0.17782 -0.55,0.55 -1.55,1.075 -2.22221,1.16666 -0.67223,0.0916 -1.82223,0.24167 -2.55556,0.33334 -0.73334,0.0916 -1.33334,0.83085 -1.33334,1.64265 0,0.88275 0.93783,1.08989 2.33334,0.5154 1.28333,-0.52833 3.38333,-1.26251 4.66666,-1.63149 z m -30.29805,-53.43572 c -0.41052,-0.41052 -1.48639,-8.6e-4 -2.39084,0.91037 -1.30701,1.31683 -1.15387,1.46997 0.7464,0.7464 1.31496,-0.50071 2.05496,-1.24625 1.64444,-1.65677 z m 32.27028,-1.06307 c -0.44305,-0.44305 -1.59307,-0.49041 -2.55556,-0.1052 -1.06364,0.42563 -0.74771,0.74157 0.80556,0.80555 1.40555,0.0579 2.19305,-0.25724 1.75,-0.7003 z"
     id="path3734"
     inkscape:connector-curvature="0" />
</svg>
